<svg width="40" height="40" viewBox="0 0 40 40" fill="none" xmlns="http://www.w3.org/2000/svg">
<path fill-rule="evenodd" clip-rule="evenodd" d="M14.1666 4.8698C12.7859 4.8698 11.6666 5.98909 11.6666 7.3698V32.6302C11.6666 34.0109 12.7859 35.1302 14.1666 35.1302H25.8333C27.214 35.1302 28.3333 34.0109 28.3333 32.6302V7.3698C28.3333 5.98909 27.214 4.8698 25.8333 4.8698H25.6943L25.2884 5.84389C25.0296 6.46491 24.4228 6.86943 23.75 6.86943H16.25C15.5772 6.86943 14.9704 6.46491 14.7116 5.84389L14.3056 4.8698H14.1666ZM8.33331 7.3698C8.33331 4.14814 10.945 1.53647 14.1666 1.53647H25.8333C29.055 1.53647 31.6666 4.14814 31.6666 7.3698V32.6302C31.6666 35.8519 29.055 38.4636 25.8333 38.4636H14.1666C10.945 38.4636 8.33331 35.8519 8.33331 32.6302V7.3698Z" fill="#FF5A30"/>
</svg>
